ffmpeg started on 2025-05-12 at 21:48:05
Report written to "D:\Convert\FFMetrics\reports\ssim_report-6.txt"
Log level: 32
Command line:
ffmpeg -hide_banner -nostdin -i "G:\\\xc0\xed\xe8\xec\xe5\\\xce\xed\xe3\xee\xe8\xed\xe3\xe8\\!_35_\xcb\xe5\xf2\xee_2024\\DreamCast-1\\\xd1\xeb\xe8\xf8\xea\xee\xec \xec\xed\xee\xe3\xee \xef\xf0\xee\xe8\xe3\xf0\xe0\xe2\xf8\xe8\xf5 \xe3\xe5\xf0\xee\xe8\xed\xfc!\\[DC] Make Heroine ga Oosugiru - 05_Telegram_HEVC.mkv" -i "G:\\\xc0\xed\xe8\xec\xe5\\\xce\xed\xe3\xee\xe8\xed\xe3\xe8\\!_35_\xcb\xe5\xf2\xee_2024\\DreamCast-1\\\xd1\xeb\xe8\xf8\xea\xee\xec \xec\xed\xee\xe3\xee \xef\xf0\xee\xe8\xe3\xf0\xe0\xe2\xf8\xe8\xf5 \xe3\xe5\xf0\xee\xe8\xed\xfc!\\[DC] Make Heroine ga Oosugiru - 05_Telegram.mp4" -lavfi "[0:v]settb=AVTB,setpts=PTS-STARTPTS,format=pix_fmts=yuv420p10,fps=24000/1001,scale=1920:1080:flags=bicubic[main];[1:v]settb=AVTB,setpts=PTS-STARTPTS,format=pix_fmts=yuv420p,fps=24000/1001,scale=1920:1080:flags=bicubic[ref];[main][ref]ssim=eof_action=endall:stats_file='D\\:/Convert/FFMetrics/logs/ssim_logfile-6.txt'" -f null -
Input #0, matroska,webm, from 'G:\Аниме\Онгоинги\!_35_Лето_2024\DreamCast-1\Слишком много проигравших героинь!\[DC] Make Heroine ga Oosugiru - 05_Telegram_HEVC.mkv':
  Metadata:
    COMPATIBLE_BRANDS: isomiso2avc1mp41
    MAJOR_BRAND     : isom
    MINOR_VERSION   : 512
    ENCODER         : Lavf61.7.100
  Duration: 00:24:07.68, start: -0.021000, bitrate: 1037 kb/s
  Stream #0:0: Video: hevc (Main 10), yuv420p10le(tv, bt709, progressive), 1920x1080 [SAR 1:1 DAR 16:9], 23.98 fps, 23.98 tbr, 1k tbn (default)
      Metadata:
        HANDLER_NAME    : VideoHandler
        VENDOR_ID       : [0][0][0][0]
        ENCODER         : Lavc61.19.100 libx265
        BPS             : 841483
        DURATION        : 00:24:06.528708333
        NUMBER_OF_FRAMES: 34682
        NUMBER_OF_BYTES : 152153726
        _STATISTICS_WRITING_APP: mkvpropedit v66.0.0 ('Josie') 64-bit
        _STATISTICS_WRITING_DATE_UTC: 2025-05-11 10:19:31
        _STATISTICS_TAGS: BPS DURATION NUMBER_OF_FRAMES NUMBER_OF_BYTES
  Stream #0:1: Audio: aac (LC), 48000 Hz, stereo, fltp (default)
      Metadata:
        HANDLER_NAME    : SoundHandler
        VENDOR_ID       : [0][0][0][0]
        ENCODER         : Lavc61.19.100 aac
        BPS             : 193064
        DURATION        : 00:24:07.680000000
        NUMBER_OF_FRAMES: 67861
        NUMBER_OF_BYTES : 34936950
        _STATISTICS_WRITING_APP: mkvpropedit v66.0.0 ('Josie') 64-bit
        _STATISTICS_WRITING_DATE_UTC: 2025-05-11 10:19:31
        _STATISTICS_TAGS: BPS DURATION NUMBER_OF_FRAMES NUMBER_OF_BYTES
Input #1, mov,mp4,m4a,3gp,3g2,mj2, from 'G:\Аниме\Онгоинги\!_35_Лето_2024\DreamCast-1\Слишком много проигравших героинь!\[DC] Make Heroine ga Oosugiru - 05_Telegram.mp4':
  Metadata:
    major_brand     : isom
    minor_version   : 512
    compatible_brands: isomiso2avc1mp41
    encoder         : Lavf61.1.100
  Duration: 00:24:07.65, start: 0.000000, bitrate: 2683 kb/s
  Stream #1:0[0x1](und): Video: h264 (High) (avc1 / 0x31637661), yuv420p(tv, bt709, progressive), 1920x1080 [SAR 1:1 DAR 16:9], 2537 kb/s, 23.98 fps, 23.98 tbr, 24k tbn (default)
      Metadata:
        handler_name    : VideoHandler
        vendor_id       : [0][0][0][0]
        encoder         : Lavc61.3.100 h264_qsv
  Stream #1:1[0x2](und): Audio: aac (HE-AACv2) (mp4a / 0x6134706D), 48000 Hz, stereo, fltp, 144 kb/s (default)
      Metadata:
        handler_name    : SoundHandler
        vendor_id       : [0][0][0][0]
Stream mapping:
  Stream #0:0 (hevc) -> settb:default
  Stream #1:0 (h264) -> settb:default
  ssim:default -> Stream #0:0 (wrapped_avframe)
  Stream #0:1 -> #0:1 (aac (native) -> pcm_s16le (native))
Output #0, null, to 'pipe:':
  Metadata:
    COMPATIBLE_BRANDS: isomiso2avc1mp41
    MAJOR_BRAND     : isom
    MINOR_VERSION   : 512
    encoder         : Lavf61.7.100
  Stream #0:0: Video: wrapped_avframe, yuv420p10le(tv, bt709, progressive), 1920x1080 [SAR 1:1 DAR 16:9], q=2-31, 200 kb/s, 23.98 fps, 23.98 tbn
      Metadata:
        encoder         : Lavc61.19.100 wrapped_avframe
  Stream #0:1: Audio: pcm_s16le, 48000 Hz, stereo, s16, 1536 kb/s (default)
      Metadata:
        HANDLER_NAME    : SoundHandler
        VENDOR_ID       : [0][0][0][0]
        _STATISTICS_TAGS: BPS DURATION NUMBER_OF_FRAMES NUMBER_OF_BYTES
        BPS             : 193064
        DURATION        : 00:24:07.680000000
        NUMBER_OF_FRAMES: 67861
        NUMBER_OF_BYTES : 34936950
        _STATISTICS_WRITING_APP: mkvpropedit v66.0.0 ('Josie') 64-bit
        _STATISTICS_WRITING_DATE_UTC: 2025-05-11 10:19:31
        encoder         : Lavc61.19.100 pcm_s16le
frame=  172 fps=0.0 q=-0.0 size=N/A time=00:00:07.17 bitrate=N/A speed=13.9x    frame=  406 fps=397 q=-0.0 size=N/A time=00:00:16.93 bitrate=N/A speed=16.6x    frame=  662 fps=428 q=-0.0 size=N/A time=00:00:27.61 bitrate=N/A speed=17.9x    frame=  838 fps=406 q=-0.0 size=N/A time=00:00:34.95 bitrate=N/A speed=16.9x    frame= 1011 fps=390 q=-0.0 size=N/A time=00:00:42.16 bitrate=N/A speed=16.3x    frame= 1199 fps=385 q=-0.0 size=N/A time=00:00:50.00 bitrate=N/A speed=16.1x    frame= 1375 fps=379 q=-0.0 size=N/A time=00:00:57.34 bitrate=N/A speed=15.8x    frame= 1529 fps=369 q=-0.0 size=N/A time=00:01:03.77 bitrate=N/A speed=15.4x    frame= 1707 fps=367 q=-0.0 size=N/A time=00:01:11.19 bitrate=N/A speed=15.3x    frame= 1892 fps=366 q=-0.0 size=N/A time=00:01:18.91 bitrate=N/A speed=15.3x    frame= 2020 fps=356 q=-0.0 size=N/A time=00:01:24.25 bitrate=N/A speed=14.8x    frame= 2196 fps=354 q=-0.0 size=N/A time=00:01:31.59 bitrate=N/A speed=14.8x    frame= 2357 fps=351 q=-0.0 size=N/A time=00:01:38.30 bitrate=N/A speed=14.6x    frame= 2522 fps=349 q=-0.0 size=N/A time=00:01:45.18 bitrate=N/A speed=14.5x    frame= 2720 fps=351 q=-0.0 size=N/A time=00:01:53.44 bitrate=N/A speed=14.7x    frame= 2940 fps=356 q=-0.0 size=N/A time=00:02:02.62 bitrate=N/A speed=14.8x    frame= 3207 fps=366 q=-0.0 size=N/A time=00:02:13.75 bitrate=N/A speed=15.3x    frame= 3460 fps=372 q=-0.0 size=N/A time=00:02:24.31 bitrate=N/A speed=15.5x    frame= 3733 fps=380 q=-0.0 size=N/A time=00:02:35.69 bitrate=N/A speed=15.9x    frame= 3979 fps=386 q=-0.0 size=N/A time=00:02:45.95 bitrate=N/A speed=16.1x    frame= 4256 fps=392 q=-0.0 size=N/A time=00:02:57.51 bitrate=N/A speed=16.4x    frame= 4531 fps=399 q=-0.0 size=N/A time=00:03:08.98 bitrate=N/A speed=16.6x    frame= 4826 fps=406 q=-0.0 size=N/A time=00:03:21.28 bitrate=N/A speed=  17x    frame= 5098 fps=411 q=-0.0 size=N/A time=00:03:32.62 bitrate=N/A speed=17.2x    frame= 5389 fps=418 q=-0.0 size=N/A time=00:03:44.76 bitrate=N/A speed=17.4x    frame= 5649 fps=421 q=-0.0 size=N/A time=00:03:55.61 bitrate=N/A speed=17.6x    frame= 5900 fps=423 q=-0.0 size=N/A time=00:04:06.07 bitrate=N/A speed=17.7x    frame= 6174 fps=427 q=-0.0 size=N/A time=00:04:17.50 bitrate=N/A speed=17.8x    frame= 6423 fps=429 q=-0.0 size=N/A time=00:04:27.89 bitrate=N/A speed=17.9x    frame= 6677 fps=431 q=-0.0 size=N/A time=00:04:38.48 bitrate=N/A speed=  18x    frame= 6941 fps=434 q=-0.0 size=N/A time=00:04:49.49 bitrate=N/A speed=18.1x    frame= 7182 fps=435 q=-0.0 size=N/A time=00:04:59.54 bitrate=N/A speed=18.1x    frame= 7435 fps=437 q=-0.0 size=N/A time=00:05:10.10 bitrate=N/A speed=18.2x    frame= 7700 fps=439 q=-0.0 size=N/A time=00:05:21.15 bitrate=N/A speed=18.3x    frame= 7945 fps=440 q=-0.0 size=N/A time=00:05:31.37 bitrate=N/A speed=18.4x    frame= 8225 fps=443 q=-0.0 size=N/A time=00:05:43.05 bitrate=N/A speed=18.5x    frame= 8496 fps=445 q=-0.0 size=N/A time=00:05:54.35 bitrate=N/A speed=18.6x    frame= 8771 fps=447 q=-0.0 size=N/A time=00:06:05.82 bitrate=N/A speed=18.7x    frame= 9044 fps=450 q=-0.0 size=N/A time=00:06:17.21 bitrate=N/A speed=18.7x    frame= 9330 fps=452 q=-0.0 size=N/A time=00:06:29.13 bitrate=N/A speed=18.9x    frame= 9587 fps=453 q=-0.0 size=N/A time=00:06:39.85 bitrate=N/A speed=18.9x    frame= 9861 fps=455 q=-0.0 size=N/A time=00:06:51.28 bitrate=N/A speed=  19x    frame=10135 fps=457 q=-0.0 size=N/A time=00:07:02.71 bitrate=N/A speed=19.1x    frame=10415 fps=459 q=-0.0 size=N/A time=00:07:14.39 bitrate=N/A speed=19.1x    frame=10668 fps=459 q=-0.0 size=N/A time=00:07:24.94 bitrate=N/A speed=19.2x    frame=10941 fps=461 q=-0.0 size=N/A time=00:07:36.33 bitrate=N/A speed=19.2x    frame=11227 fps=463 q=-0.0 size=N/A time=00:07:48.25 bitrate=N/A speed=19.3x    frame=11490 fps=464 q=-0.0 size=N/A time=00:07:59.22 bitrate=N/A speed=19.4x    frame=11767 fps=466 q=-0.0 size=N/A time=00:08:10.78 bitrate=N/A speed=19.4x    frame=12009 fps=466 q=-0.0 size=N/A time=00:08:20.87 bitrate=N/A speed=19.4x    frame=12238 fps=465 q=-0.0 size=N/A time=00:08:30.42 bitrate=N/A speed=19.4x    frame=12474 fps=465 q=-0.0 size=N/A time=00:08:40.26 bitrate=N/A speed=19.4x    frame=12707 fps=465 q=-0.0 size=N/A time=00:08:49.98 bitrate=N/A speed=19.4x    frame=12974 fps=466 q=-0.0 size=N/A time=00:09:01.12 bitrate=N/A speed=19.4x    frame=13242 fps=467 q=-0.0 size=N/A time=00:09:12.30 bitrate=N/A speed=19.5x    frame=13507 fps=468 q=-0.0 size=N/A time=00:09:23.35 bitrate=N/A speed=19.5x    frame=13795 fps=469 q=-0.0 size=N/A time=00:09:35.36 bitrate=N/A speed=19.6x    frame=14065 fps=470 q=-0.0 size=N/A time=00:09:46.62 bitrate=N/A speed=19.6x    frame=14305 fps=470 q=-0.0 size=N/A time=00:09:56.63 bitrate=N/A speed=19.6x    frame=14574 fps=471 q=-0.0 size=N/A time=00:10:07.85 bitrate=N/A speed=19.6x    frame=14845 fps=471 q=-0.0 size=N/A time=00:10:19.16 bitrate=N/A speed=19.7x    frame=15114 fps=472 q=-0.0 size=N/A time=00:10:30.37 bitrate=N/A speed=19.7x    frame=15391 fps=473 q=-0.0 size=N/A time=00:10:41.93 bitrate=N/A speed=19.7x    frame=15651 fps=474 q=-0.0 size=N/A time=00:10:52.77 bitrate=N/A speed=19.8x    frame=15924 fps=475 q=-0.0 size=N/A time=00:11:04.16 bitrate=N/A speed=19.8x    frame=16174 fps=475 q=-0.0 size=N/A time=00:11:14.59 bitrate=N/A speed=19.8x    frame=16442 fps=475 q=-0.0 size=N/A time=00:11:25.76 bitrate=N/A speed=19.8x    frame=16711 fps=476 q=-0.0 size=N/A time=00:11:36.98 bitrate=N/A speed=19.9x    frame=16974 fps=476 q=-0.0 size=N/A time=00:11:47.95 bitrate=N/A speed=19.9x    frame=17235 fps=477 q=-0.0 size=N/A time=00:11:58.84 bitrate=N/A speed=19.9x    frame=17506 fps=478 q=-0.0 size=N/A time=00:12:10.14 bitrate=N/A speed=19.9x    frame=17775 fps=478 q=-0.0 size=N/A time=00:12:21.36 bitrate=N/A speed=  20x    frame=18047 fps=479 q=-0.0 size=N/A time=00:12:32.71 bitrate=N/A speed=  20x    frame=18312 fps=479 q=-0.0 size=N/A time=00:12:43.76 bitrate=N/A speed=  20x    frame=18517 fps=478 q=-0.0 size=N/A time=00:12:52.31 bitrate=N/A speed=19.9x    frame=18724 fps=477 q=-0.0 size=N/A time=00:13:00.94 bitrate=N/A speed=19.9x    frame=18948 fps=477 q=-0.0 size=N/A time=00:13:10.28 bitrate=N/A speed=19.9x    frame=19228 fps=478 q=-0.0 size=N/A time=00:13:21.96 bitrate=N/A speed=19.9x    frame=19505 fps=478 q=-0.0 size=N/A time=00:13:33.52 bitrate=N/A speed=19.9x    frame=19764 fps=479 q=-0.0 size=N/A time=00:13:44.32 bitrate=N/A speed=  20x    frame=20011 fps=479 q=-0.0 size=N/A time=00:13:54.62 bitrate=N/A speed=  20x    frame=20262 fps=479 q=-0.0 size=N/A time=00:14:05.09 bitrate=N/A speed=  20x    frame=20524 fps=479 q=-0.0 size=N/A time=00:14:16.02 bitrate=N/A speed=  20x    frame=20770 fps=479 q=-0.0 size=N/A time=00:14:26.28 bitrate=N/A speed=  20x    frame=21036 fps=479 q=-0.0 size=N/A time=00:14:37.37 bitrate=N/A speed=  20x    frame=21297 fps=480 q=-0.0 size=N/A time=00:14:48.26 bitrate=N/A speed=  20x    frame=21574 fps=480 q=-0.0 size=N/A time=00:14:59.81 bitrate=N/A speed=  20x    frame=21818 fps=480 q=-0.0 size=N/A time=00:15:09.99 bitrate=N/A speed=  20x    frame=22092 fps=481 q=-0.0 size=N/A time=00:15:21.42 bitrate=N/A speed=20.1x    frame=22357 fps=481 q=-0.0 size=N/A time=00:15:32.47 bitrate=N/A speed=20.1x    frame=22612 fps=481 q=-0.0 size=N/A time=00:15:43.10 bitrate=N/A speed=20.1x    frame=22870 fps=482 q=-0.0 size=N/A time=00:15:53.86 bitrate=N/A speed=20.1x    frame=23132 fps=482 q=-0.0 size=N/A time=00:16:04.79 bitrate=N/A speed=20.1x    frame=23391 fps=482 q=-0.0 size=N/A time=00:16:15.59 bitrate=N/A speed=20.1x    frame=23647 fps=482 q=-0.0 size=N/A time=00:16:26.27 bitrate=N/A speed=20.1x    frame=23925 fps=483 q=-0.0 size=N/A time=00:16:37.87 bitrate=N/A speed=20.1x    frame=24208 fps=484 q=-0.0 size=N/A time=00:16:49.67 bitrate=N/A speed=20.2x    frame=24472 fps=484 q=-0.0 size=N/A time=00:17:00.68 bitrate=N/A speed=20.2x    frame=24741 fps=484 q=-0.0 size=N/A time=00:17:11.90 bitrate=N/A speed=20.2x    frame=25007 fps=485 q=-0.0 size=N/A time=00:17:23.00 bitrate=N/A speed=20.2x    frame=25282 fps=485 q=-0.0 size=N/A time=00:17:34.47 bitrate=N/A speed=20.2x    frame=25557 fps=486 q=-0.0 size=N/A time=00:17:45.93 bitrate=N/A speed=20.3x    frame=25834 fps=486 q=-0.0 size=N/A time=00:17:57.49 bitrate=N/A speed=20.3x    frame=26114 fps=487 q=-0.0 size=N/A time=00:18:09.17 bitrate=N/A speed=20.3x    frame=26388 fps=487 q=-0.0 size=N/A time=00:18:20.59 bitrate=N/A speed=20.3x    frame=26661 fps=487 q=-0.0 size=N/A time=00:18:31.98 bitrate=N/A speed=20.3x    frame=26927 fps=488 q=-0.0 size=N/A time=00:18:43.08 bitrate=N/A speed=20.3x    frame=27197 fps=488 q=-0.0 size=N/A time=00:18:54.34 bitrate=N/A speed=20.4x    frame=27442 fps=488 q=-0.0 size=N/A time=00:19:04.56 bitrate=N/A speed=20.3x    frame=27718 fps=488 q=-0.0 size=N/A time=00:19:16.07 bitrate=N/A speed=20.4x    frame=27993 fps=489 q=-0.0 size=N/A time=00:19:27.54 bitrate=N/A speed=20.4x    frame=28250 fps=489 q=-0.0 size=N/A time=00:19:38.26 bitrate=N/A speed=20.4x    frame=28512 fps=489 q=-0.0 size=N/A time=00:19:49.18 bitrate=N/A speed=20.4x    frame=28767 fps=489 q=-0.0 size=N/A time=00:19:59.82 bitrate=N/A speed=20.4x    frame=29041 fps=489 q=-0.0 size=N/A time=00:20:11.25 bitrate=N/A speed=20.4x    frame=29308 fps=490 q=-0.0 size=N/A time=00:20:22.38 bitrate=N/A speed=20.4x    frame=29589 fps=490 q=-0.0 size=N/A time=00:20:34.10 bitrate=N/A speed=20.4x    frame=29848 fps=490 q=-0.0 size=N/A time=00:20:44.91 bitrate=N/A speed=20.4x    frame=30103 fps=490 q=-0.0 size=N/A time=00:20:55.54 bitrate=N/A speed=20.4x    frame=30369 fps=490 q=-0.0 size=N/A time=00:21:06.64 bitrate=N/A speed=20.5x    frame=30636 fps=491 q=-0.0 size=N/A time=00:21:17.77 bitrate=N/A speed=20.5x    frame=30912 fps=491 q=-0.0 size=N/A time=00:21:29.28 bitrate=N/A speed=20.5x    frame=31180 fps=491 q=-0.0 size=N/A time=00:21:40.46 bitrate=N/A speed=20.5x    frame=31441 fps=491 q=-0.0 size=N/A time=00:21:51.35 bitrate=N/A speed=20.5x    frame=31673 fps=491 q=-0.0 size=N/A time=00:22:01.02 bitrate=N/A speed=20.5x    frame=31957 fps=492 q=-0.0 size=N/A time=00:22:12.87 bitrate=N/A speed=20.5x    frame=32208 fps=492 q=-0.0 size=N/A time=00:22:23.34 bitrate=N/A speed=20.5x    frame=32458 fps=491 q=-0.0 size=N/A time=00:22:33.76 bitrate=N/A speed=20.5x    frame=32650 fps=491 q=-0.0 size=N/A time=00:22:41.77 bitrate=N/A speed=20.5x    frame=32836 fps=490 q=-0.0 size=N/A time=00:22:49.53 bitrate=N/A speed=20.4x    frame=33049 fps=489 q=-0.0 size=N/A time=00:22:58.41 bitrate=N/A speed=20.4x    frame=33267 fps=488 q=-0.0 size=N/A time=00:23:07.51 bitrate=N/A speed=20.4x    frame=33468 fps=488 q=-0.0 size=N/A time=00:23:15.89 bitrate=N/A speed=20.3x    frame=33640 fps=486 q=-0.0 size=N/A time=00:23:23.06 bitrate=N/A speed=20.3x    frame=33786 fps=485 q=-0.0 size=N/A time=00:23:29.15 bitrate=N/A speed=20.2x    frame=33944 fps=484 q=-0.0 size=N/A time=00:23:35.74 bitrate=N/A speed=20.2x    frame=34125 fps=483 q=-0.0 size=N/A time=00:23:43.29 bitrate=N/A speed=20.1x    frame=34294 fps=482 q=-0.0 size=N/A time=00:23:50.34 bitrate=N/A speed=20.1x    frame=34436 fps=480 q=-0.0 size=N/A time=00:23:56.26 bitrate=N/A speed=  20x    frame=34655 fps=480 q=-0.0 size=N/A time=00:24:05.40 bitrate=N/A speed=  20x    [Parsed_ssim_10 @ 0000026123350200] SSIM Y:0.994017 (22.231058) U:0.994804 (22.842940) V:0.995215 (23.201015) All:0.994348 (22.477946)
[out#0/null @ 0000026116226e00] video:14902KiB audio:271444KiB subtitle:0KiB other streams:0KiB global headers:0KiB muxing overhead: unknown
frame=34682 fps=480 q=-0.0 Lsize=N/A time=00:24:06.52 bitrate=N/A speed=  20x    
